<svg width="36" height="37" viewBox="0 0 36 37" fill="none" xmlns="http://www.w3.org/2000/svg">
<rect y="0.25" width="36" height="36" rx="18" fill="#2A3249" fill-opacity="0.05"/>
<path fill-rule="evenodd" clip-rule="evenodd" d="M18 8.25C23.5232 8.25 28 12.7268 28 18.25C28 23.7732 23.5232 28.25 18 28.25C12.4768 28.25 8 23.7732 8 18.25C8 12.7268 12.4768 8.25 18 8.25Z" fill="#F0B90B"/>
<path d="M13.496 18.25L13.5032 20.8942L15.75 22.2163V23.7644L12.1883 21.6755V17.4768L13.496 18.25ZM13.496 15.6058V17.1466L12.1875 16.3726V14.8317L13.496 14.0577L14.8109 14.8317L13.496 15.6058ZM16.6883 14.8317L17.9968 14.0577L19.3117 14.8317L17.9968 15.6058L16.6883 14.8317Z" fill="white"/>
<path d="M14.4415 20.3462V18.7981L15.75 19.5721V21.113L14.4415 20.3462ZM16.6883 22.7708L17.9968 23.5449L19.3117 22.7708V24.3117L17.9968 25.0857L16.6883 24.3117V22.7708ZM21.1883 14.8317L22.4968 14.0577L23.8117 14.8317V16.3726L22.4968 17.1466V15.6058L21.1883 14.8317ZM22.4968 20.8942L22.504 18.25L23.8125 17.476V21.6747L20.2508 23.7636V22.2155L22.4968 20.8942Z" fill="white"/>
<path d="M21.5585 20.3461L20.25 21.113V19.5721L21.5585 18.7981V20.3461Z" fill="white"/>
<path d="M21.5585 16.1538L21.5657 17.7019L19.3125 19.024V21.6747L18.004 22.4415L16.6955 21.6747V19.024L14.4423 17.7019V16.1538L15.7564 15.3798L17.996 16.7083L20.2492 15.3798L21.5641 16.1538H21.5585ZM14.4415 13.5104L17.9968 11.4143L21.5585 13.5104L20.25 14.2845L17.9968 12.9559L15.75 14.2845L14.4415 13.5104Z" fill="white"/>
</svg>
