<svg width="24" height="30" viewBox="0 0 24 30" fill="none" xmlns="http://www.w3.org/2000/svg">
<path fill-rule="evenodd" clip-rule="evenodd" d="M13.1785 22.1548C12.5276 21.5039 11.4723 21.5039 10.8214 22.1548C10.1706 22.8057 10.1706 23.861 10.8214 24.5118L15.8214 29.5118C16.4723 30.1627 17.5276 30.1627 18.1785 29.5118L23.1785 24.5118C23.8293 23.861 23.8293 22.8057 23.1785 22.1548C22.5276 21.5039 21.4723 21.5039 20.8214 22.1548L18.6666 24.3096L18.6666 11.6667C18.6666 10.7462 17.9204 10 17 10C16.0795 10 15.3333 10.7462 15.3333 11.6667L15.3333 24.3096L13.1785 22.1548ZM10.8214 7.84518C11.4723 8.49605 12.5276 8.49605 13.1785 7.84518C13.8293 7.1943 13.8293 6.13903 13.1785 5.48815L8.17847 0.488154C7.5276 -0.16272 6.47232 -0.16272 5.82145 0.488154L0.821447 5.48815C0.170572 6.13903 0.170572 7.1943 0.821447 7.84518C1.47232 8.49605 2.5276 8.49605 3.17847 7.84518L5.33329 5.69035L5.33329 18.3333C5.33329 19.2538 6.07948 20 6.99996 20C7.92043 20 8.66662 19.2538 8.66662 18.3333L8.66662 5.69035L10.8214 7.84518Z" fill="#404E71"/>
</svg>
