<svg width="18" height="18" viewBox="0 0 18 18" fill="none" xmlns="http://www.w3.org/2000/svg">
<path fill-rule="evenodd" clip-rule="evenodd" d="M0.666656 8.99996C0.666656 4.39759 4.39762 0.666626 8.99999 0.666626C13.6024 0.666626 17.3333 4.39759 17.3333 8.99996C17.3333 13.6023 13.6024 17.3333 8.99999 17.3333C4.39762 17.3333 0.666656 13.6023 0.666656 8.99996ZM8.16666 5.66663C8.16666 5.20639 8.53975 4.83329 8.99999 4.83329C9.46023 4.83329 9.83332 5.20639 9.83332 5.66663C9.83332 6.12686 9.46023 6.49996 8.99999 6.49996C8.53975 6.49996 8.16666 6.12686 8.16666 5.66663ZM8.99999 8.16663C9.46023 8.16663 9.83332 8.53972 9.83332 8.99996V12.3333C9.83332 12.7935 9.46023 13.1666 8.99999 13.1666C8.53975 13.1666 8.16666 12.7935 8.16666 12.3333V8.99996C8.16666 8.53972 8.53975 8.16663 8.99999 8.16663Z" fill="#3756E4"/>
</svg>
