<svg width="24" height="24" viewBox="0 0 24 24" fill="none" xmlns="http://www.w3.org/2000/svg">
<path d="M23.8764 18.0313L19.9145 22.1706C19.8284 22.2606 19.7241 22.3323 19.6083 22.3813C19.4925 22.4302 19.3676 22.4555 19.2414 22.4554H0.459951C0.370334 22.4554 0.28267 22.4299 0.207731 22.3821C0.132791 22.3342 0.0738392 22.266 0.0381186 22.1859C0.00239817 22.1059 -0.00853499 22.0174 0.00666254 21.9314C0.02186 21.8453 0.0625261 21.7655 0.123665 21.7016L4.08858 17.5623C4.17448 17.4726 4.27834 17.4011 4.39376 17.3521C4.50919 17.3031 4.63371 17.2777 4.75962 17.2775H23.54C23.6296 17.2775 23.7173 17.303 23.7923 17.3509C23.8672 17.3988 23.9261 17.4669 23.962 17.547C23.9976 17.6271 24.0085 17.7155 23.9933 17.8016C23.9781 17.8876 23.9375 17.9675 23.8764 18.0313ZM19.9145 9.69581C19.8284 9.6059 19.7241 9.5342 19.6083 9.48521C19.4925 9.43623 19.3676 9.41097 19.2414 9.41104H0.459951C0.370334 9.41104 0.28267 9.43654 0.207731 9.48442C0.132791 9.5323 0.0738392 9.60045 0.0381186 9.68051C0.00239817 9.76059 -0.00853499 9.84908 0.00666254 9.93512C0.02186 10.0211 0.0625261 10.101 0.123665 10.1648L4.08858 14.3042C4.17448 14.3939 4.27834 14.4654 4.39376 14.5144C4.50919 14.5634 4.63371 14.5888 4.75962 14.589H23.54C23.6296 14.589 23.7173 14.5635 23.7923 14.5156C23.8672 14.4677 23.9261 14.3995 23.962 14.3195C23.9976 14.2394 24.0085 14.1509 23.9933 14.0649C23.9781 13.9789 23.9375 13.899 23.8764 13.8352L19.9145 9.69581ZM0.459951 6.7225H19.2414C19.3676 6.72255 19.4925 6.69731 19.6083 6.64831C19.7241 6.59932 19.8284 6.52762 19.9145 6.43771L23.8764 2.29835C23.9375 2.23452 23.9781 2.15468 23.9933 2.06864C24.0085 1.9826 23.9976 1.89411 23.962 1.81405C23.9261 1.73398 23.8672 1.66582 23.7923 1.61795C23.7173 1.57007 23.6296 1.54457 23.54 1.54456H4.75962C4.63371 1.54477 4.50919 1.57016 4.39376 1.61914C4.27834 1.66813 4.17448 1.73967 4.08858 1.82935L0.124687 5.96871C0.0636073 6.03246 0.0229591 6.11223 0.00772716 6.19816C-0.00750484 6.28411 0.00334156 6.37253 0.038936 6.45256C0.0745306 6.53259 0.133326 6.60074 0.208112 6.64869C0.282898 6.69665 0.370422 6.72229 0.459951 6.7225Z" fill="url(#paint0_linear_5_2649)"/>
<defs>
<linearGradient id="paint0_linear_5_2649" x1="2.02588" y1="22.9538" x2="21.1469" y2="0.827835" gradientUnits="userSpaceOnUse">
<stop offset="0.08" stop-color="#9945FF"/>
<stop offset="0.3" stop-color="#8752F3"/>
<stop offset="0.5" stop-color="#5497D5"/>
<stop offset="0.6" stop-color="#43B4CA"/>
<stop offset="0.72" stop-color="#28E0B9"/>
<stop offset="0.97" stop-color="#19FB9B"/>
</linearGradient>
</defs>
</svg>
