<svg width="14" height="14" viewBox="0 0 14 14" fill="none" xmlns="http://www.w3.org/2000/svg">
<path fill-rule="evenodd" clip-rule="evenodd" d="M0.333374 7.00001C0.333374 3.31811 3.31814 0.333344 7.00004 0.333344C10.6819 0.333344 13.6667 3.31811 13.6667 7.00001C13.6667 10.6819 10.6819 13.6667 7.00004 13.6667C3.31814 13.6667 0.333374 10.6819 0.333374 7.00001ZM6.80478 4.52861C6.54443 4.26826 6.12232 4.26826 5.86197 4.52861C5.60162 4.78896 5.60162 5.21107 5.86197 5.47141L7.39057 7.00001L5.86197 8.52861C5.60162 8.78896 5.60162 9.21107 5.86197 9.47141C6.12232 9.73176 6.54443 9.73176 6.80478 9.47141L8.80478 7.47142C9.06513 7.21107 9.06513 6.78896 8.80478 6.52861L6.80478 4.52861Z" fill="#404E71"/>
</svg>
