<svg width="36" height="37" viewBox="0 0 36 37" fill="none" xmlns="http://www.w3.org/2000/svg">
<rect y="0.25" width="36" height="36" rx="18" fill="#2A3249" fill-opacity="0.05"/>
<path d="M27.897 23.2761L24.5954 26.7255C24.5236 26.8005 24.4368 26.8602 24.3403 26.901C24.2438 26.9419 24.1397 26.9629 24.0345 26.9629H8.38329C8.30861 26.9629 8.23556 26.9416 8.17311 26.9017C8.11066 26.8618 8.06153 26.805 8.03177 26.7383C8.002 26.6716 7.99289 26.5978 8.00555 26.5261C8.01822 26.4544 8.05211 26.3879 8.10305 26.3347L11.4071 22.8852C11.4787 22.8105 11.5653 22.7509 11.6615 22.7101C11.7577 22.6692 11.8614 22.6481 11.9664 22.6479H27.6167C27.6914 22.6479 27.7644 22.6692 27.8269 22.7091C27.8893 22.749 27.9384 22.8058 27.9683 22.8725C27.998 22.9392 28.0071 23.0129 27.9944 23.0846C27.9818 23.1564 27.9479 23.2229 27.897 23.2761ZM24.5954 16.3298C24.5236 16.2549 24.4368 16.1952 24.3403 16.1543C24.2438 16.1135 24.1397 16.0925 24.0345 16.0925H8.38329C8.30861 16.0925 8.23556 16.1138 8.17311 16.1537C8.11066 16.1936 8.06153 16.2504 8.03177 16.3171C8.002 16.3838 7.99289 16.4576 8.00555 16.5293C8.01822 16.601 8.05211 16.6675 8.10305 16.7207L11.4071 20.1702C11.4787 20.2449 11.5653 20.3045 11.6615 20.3453C11.7577 20.3861 11.8614 20.4073 11.9664 20.4075H27.6167C27.6914 20.4075 27.7644 20.3862 27.8269 20.3463C27.8893 20.3064 27.9384 20.2496 27.9683 20.1829C27.998 20.1162 28.0071 20.0424 27.9944 19.9707C27.9818 19.899 27.9479 19.8325 27.897 19.7793L24.5954 16.3298ZM8.38329 13.8521H24.0345C24.1397 13.8521 24.2438 13.8311 24.3403 13.7903C24.4368 13.7494 24.5236 13.6897 24.5954 13.6148L27.897 10.1653C27.9479 10.1121 27.9818 10.0456 27.9944 9.97387C28.0071 9.90217 27.998 9.82843 27.9683 9.76171C27.9384 9.69498 27.8893 9.63818 27.8269 9.59829C27.7644 9.55839 27.6914 9.53714 27.6167 9.53714H11.9664C11.8614 9.53731 11.7577 9.55846 11.6615 9.59928C11.5653 9.6401 11.4787 9.69973 11.4071 9.77446L8.10391 13.2239C8.05301 13.2771 8.01913 13.3435 8.00644 13.4151C7.99375 13.4868 8.00278 13.5604 8.03245 13.6271C8.06211 13.6938 8.11111 13.7506 8.17343 13.7906C8.23575 13.8305 8.30868 13.8519 8.38329 13.8521Z" fill="url(#paint0_linear_3_2551)"/>
<defs>
<linearGradient id="paint0_linear_3_2551" x1="9.68823" y1="27.3782" x2="25.6224" y2="8.93986" gradientUnits="userSpaceOnUse">
<stop offset="0.08" stop-color="#9945FF"/>
<stop offset="0.3" stop-color="#8752F3"/>
<stop offset="0.5" stop-color="#5497D5"/>
<stop offset="0.6" stop-color="#43B4CA"/>
<stop offset="0.72" stop-color="#28E0B9"/>
<stop offset="0.97" stop-color="#19FB9B"/>
</linearGradient>
</defs>
</svg>
